<?xml version="1.0" encoding="utf-8"?>
<svg viewBox="216.913 72.304 2855.392 556.743" xmlns="http://www.w3.org/2000/svg">
  <g transform="matrix(7.23043, 0, 0, 7.23043, 72.304298, 72.304298)">
    <g id="SvgjsG28264" featurekey="symbolGroupContainer" transform="matrix(1,0,0,1,20,0)" fill="#000">
      <rect xmlns="http://www.w3.org/2000/svg" width="90" height="77" rx="10" ry="10"/>
    </g>
    <g id="SvgjsG28265" featurekey="monogramFeature-0" transform="matrix(0.8830187409462231,0,0,0.8830187409462231,38.41056778209892,4.1056643471925724)" fill="#ffffff">
      <path d="M58.56 18 l-13.56 42 l-3.24 0 l-11.58 -32.82 l-11.52 32.82 l-3.24 0 l-13.62 -42 l5.16 0 l10.26 31.74 l11.22 -31.74 l3.48 0 l11.28 31.74 l10.26 -31.74 l5.1 0 z"/>
    </g>
    <g id="SvgjsG28266" featurekey="nameLeftFeature-0" transform="matrix(2.045720229487313,0,0,2.045720229487313,128.77256903287812,11.725679598551544)" fill="#000">
      <path d="M19.52 6 l-4.52 14 l-1.08 0 l-3.86 -10.94 l-3.84 10.94 l-1.08 0 l-4.54 -14 l1.72 0 l3.42 10.58 l3.74 -10.58 l1.16 0 l3.76 10.58 l3.42 -10.58 l1.7 0 z M30.1 6 l1.66 0 l0 14 l-1.66 0 l0 -6.12 l-7.12 0 l0 6.12 l-1.66 0 l0 -14 l1.66 0 l0 6.32 l7.12 0 l0 -6.32 z M35.82 6 l0 14 l-1.66 0 l0 -14 l1.66 0 z M47.980000000000004 6 l1.66 0 l0 14 l-1.28 0 l-8.48 -10.96 l0 10.96 l-1.66 0 l0 -14 l1.28 0 l8.48 10.98 l0 -10.98 z M60.300000000000004 7.5 l-6.56 0 l0 4.74 l5.42 0 l0 1.42 l-5.42 0 l0 6.34 l-1.7 0 l0 -14 l8.26 0 l0 1.5 z M63.86 6 l0 14 l-1.66 0 l0 -14 l1.66 0 z M67.92 18.44 l6.66 0 l0 1.56 l-7.06 0 l-1.26 0 l0 -14 l1.66 0 l6.48 0 l0 1.56 l-6.48 0 l0 4.64 l5.04 0 l0 1.52 l-5.04 0 l0 4.72 z M78.34 18.44 l6.28 0 l0 1.56 l-7.94 0 l0 -14 l1.66 0 l0 12.44 z M90.78 6 c4.08 0 7.08 3.1 7.08 7 s-3 7 -7.08 7 l-4.16 0 l0 -14 l4.16 0 z M90.76 18.42 c3.34 0 5.4 -2.42 5.4 -5.42 s-2.06 -5.42 -5.4 -5.42 l-2.48 0 l0 10.84 l2.48 0 z"/>
    </g>
    <g id="SvgjsG28267" featurekey="nameRightFeature-0" transform="matrix(2.045720229487313,0,0,2.045720229487313,334.2708157133569,11.725678623076123)" fill="#000">
      <path d="M8.86 18.44 l6.28 0 l0 1.56 l-7.94 0 l0 -14 l1.66 0 l0 12.44 z M26.18 6 l0 1.56 l-3.88 0 l0 12.44 l-1.66 0 l0 -12.44 l-3.9 0 l0 -1.56 l9.44 0 z M32.34 6 c4.08 0 7.08 3.1 7.08 7 s-3 7 -7.08 7 l-4.16 0 l0 -14 l4.16 0 z M32.32 18.42 c3.34 0 5.4 -2.42 5.4 -5.42 s-2.06 -5.42 -5.4 -5.42 l-2.48 0 l0 10.84 l2.48 0 z"/>
    </g>
  </g>
</svg>